<?xml version="1.0" encoding="utf-8"?>
<!-- Generator: Adobe Illustrator 18.0.0, SVG Export Plug-In . SVG Version: 6.00 Build 0)  -->
<!DOCTYPE svg PUBLIC "-//W3C//DTD SVG 1.1//EN" "http://www.w3.org/Graphics/SVG/1.1/DTD/svg11.dtd">
<svg version="1.1" id="Layer_1" xmlns="http://www.w3.org/2000/svg" xmlns:xlink="http://www.w3.org/1999/xlink" x="0px" y="0px"
	 viewBox="0 0 640 150" enable-background="new 0 0 640 150" xml:space="preserve">
<g>
	<path fill="#1A1A1A" d="M33.8,52.4c-1.3-2.1-2.8-3.7-4.5-4.8S25.5,46,22.9,46c-1.4,0-2.8,0.2-4.1,0.7c-1.4,0.5-2.6,1.1-3.7,1.9
		c-1.1,0.8-2,1.8-2.6,3c-0.7,1.2-1,2.5-1,4c0,1.3,0.3,2.5,0.9,3.5c0.6,1,1.4,1.9,2.3,2.7c0.9,0.8,1.9,1.5,3,2
		c1.1,0.6,2.2,1.1,3.3,1.5l4.9,1.9c2.4,1,4.6,2,6.7,3.2c2.1,1.2,3.9,2.6,5.4,4.2c1.5,1.6,2.7,3.5,3.5,5.6c0.8,2.1,1.3,4.6,1.3,7.4
		c0,3.1-0.6,5.9-1.7,8.5c-1.1,2.6-2.6,4.9-4.6,6.7c-2,1.9-4.3,3.3-6.9,4.4c-2.6,1.1-5.5,1.6-8.6,1.6c-2.8,0-5.4-0.5-7.8-1.4
		c-2.4-1-4.5-2.3-6.4-4c-1.8-1.7-3.4-3.7-4.6-6c-1.2-2.3-2-4.9-2.3-7.6l8.6-1.8c0,1.9,0.3,3.6,1,5.2c0.7,1.6,1.6,3,2.8,4.1
		c1.2,1.1,2.6,2,4.2,2.7c1.6,0.6,3.3,0.9,5.1,0.9c1.8,0,3.5-0.4,5-1.1c1.5-0.7,2.9-1.7,4-2.9c1.1-1.2,2-2.6,2.6-4.2
		c0.6-1.6,0.9-3.3,0.9-5.1c0-1.8-0.3-3.4-1-4.7c-0.7-1.4-1.5-2.5-2.7-3.5c-1.1-1-2.4-1.9-3.8-2.6c-1.4-0.8-2.8-1.4-4.3-2l-4.7-2
		c-1.9-0.8-3.8-1.8-5.6-2.8c-1.8-1-3.4-2.2-4.7-3.5s-2.4-2.9-3.2-4.7c-0.8-1.8-1.2-3.9-1.2-6.2c0-2.8,0.6-5.2,1.7-7.4
		c1.1-2.2,2.6-4,4.5-5.5c1.9-1.5,4-2.7,6.4-3.5c2.4-0.8,4.9-1.2,7.5-1.2c3.8,0,7.2,0.9,10.2,2.7c3,1.8,5.4,4.3,7.3,7.6L33.8,52.4z"
		/>
	<path fill="#1A1A1A" d="M76.7,90.5l-7.8,17h-9.1l32.5-70.9l32.5,70.9h-9.1l-7.8-17H76.7z M92.3,55.2L80.2,82.7h24.2L92.3,55.2z"/>
	<path fill="#1A1A1A" d="M144.5,36.3l51,53.5V39.5h8.5v70.8l-51-53.5v50.7h-8.5V36.3z"/>
	<path fill="#1A1A1A" d="M233.9,39.5h14.1c5.2,0,10.1,0.7,14.7,2.1c4.6,1.4,8.6,3.5,12.1,6.3c3.5,2.8,6.2,6.3,8.3,10.5
		c2,4.2,3,9.1,3,14.8c0,5.8-1,10.8-3,15.2c-2,4.3-4.7,7.9-8.2,10.7c-3.5,2.8-7.5,4.9-12.2,6.4c-4.7,1.4-9.7,2.1-15.1,2.1h-13.8V39.5
		z M242.3,99.8h3c4.3,0,8.4-0.4,12.4-1.3c3.9-0.9,7.3-2.3,10.3-4.4c2.9-2,5.3-4.7,7-8.1c1.7-3.4,2.6-7.5,2.6-12.4
		c0-4.9-0.9-9.1-2.6-12.4c-1.7-3.4-4.1-6.1-7-8.1c-2.9-2-6.4-3.5-10.3-4.4c-3.9-0.9-8-1.3-12.4-1.3h-3V99.8z"/>
	<path fill="#1A1A1A" d="M326.6,87.6l19.2-50.1l19.2,50.1l19-48.7h9.2l-28.2,70.7l-19.2-49.9l-19.2,49.9l-28.2-70.7h9.2L326.6,87.6z
		"/>
	<path fill="#1A1A1A" d="M441.5,37.9c4.9,0,9.5,0.9,13.8,2.8c4.3,1.9,8.1,4.4,11.3,7.6c3.2,3.2,5.8,7,7.7,11.3
		c1.9,4.3,2.8,8.9,2.8,13.8c0,5.1-0.9,9.7-2.8,14.1c-1.9,4.3-4.4,8.1-7.6,11.2c-3.2,3.2-7,5.6-11.3,7.4c-4.3,1.8-9,2.7-13.9,2.7
		c-4.9,0-9.6-0.9-13.9-2.7c-4.3-1.8-8.1-4.3-11.3-7.4c-3.2-3.2-5.8-6.9-7.6-11.2c-1.9-4.3-2.8-9-2.8-14.1c0-4.9,0.9-9.5,2.8-13.8
		c1.9-4.3,4.4-8.1,7.7-11.3c3.2-3.2,7-5.8,11.3-7.6C432,38.8,436.6,37.9,441.5,37.9z M441.5,100.8c3.7,0,7.1-0.7,10.4-2.1
		c3.3-1.4,6.2-3.4,8.7-5.8c2.5-2.5,4.5-5.4,5.9-8.7s2.2-7,2.2-10.9c0-3.7-0.7-7.3-2-10.6c-1.3-3.3-3.2-6.3-5.6-8.7
		c-2.4-2.5-5.3-4.5-8.6-6c-3.3-1.5-7-2.2-11-2.2c-4,0-7.6,0.7-11,2.2c-3.3,1.5-6.2,3.5-8.6,6c-2.4,2.5-4.3,5.4-5.6,8.7
		c-1.3,3.3-2,6.9-2,10.6c0,3.9,0.7,7.5,2.2,10.9s3.4,6.2,5.9,8.7c2.5,2.5,5.4,4.4,8.7,5.8C434.4,100.1,437.8,100.8,441.5,100.8z"/>
	<path fill="#1A1A1A" d="M528.6,38.1c4.9,0,9.5,0.9,13.8,2.8c4.3,1.9,8.1,4.4,11.3,7.6c3.2,3.2,5.8,7,7.7,11.3
		c1.9,4.3,2.8,8.9,2.8,13.8c0,5.1-0.9,9.7-2.8,14.1c-1.9,4.3-4.4,8.1-7.6,11.2c-3.2,3.2-7,5.6-11.3,7.4c-4.3,1.8-9,2.7-13.9,2.7
		c-4.9,0-9.6-0.9-13.9-2.7c-4.3-1.8-8.1-4.3-11.3-7.4c-3.2-3.2-5.8-6.9-7.6-11.2c-1.9-4.3-2.8-9-2.8-14.1c0-4.9,0.9-9.5,2.8-13.8
		c1.9-4.3,4.4-8.1,7.7-11.3c3.2-3.2,7-5.8,11.3-7.6C519.1,39,523.7,38.1,528.6,38.1z M528.6,101c3.7,0,7.1-0.7,10.4-2.1
		c3.3-1.4,6.2-3.4,8.7-5.8c2.5-2.5,4.5-5.4,5.9-8.7c1.4-3.3,2.2-7,2.2-10.9c0-3.7-0.7-7.3-2-10.6c-1.3-3.3-3.2-6.3-5.6-8.7
		c-2.4-2.5-5.3-4.5-8.6-6c-3.3-1.5-7-2.2-11-2.2c-4,0-7.6,0.7-11,2.2c-3.3,1.5-6.2,3.5-8.6,6c-2.4,2.5-4.3,5.4-5.6,8.7
		c-1.3,3.3-2,6.9-2,10.6c0,3.9,0.7,7.5,2.2,10.9s3.4,6.2,5.9,8.7c2.5,2.5,5.4,4.4,8.7,5.8C521.4,100.3,524.9,101,528.6,101z"/>
	<path fill="#1A1A1A" d="M585.1,39.5h14.1c5.2,0,10.1,0.7,14.7,2.1c4.6,1.4,8.6,3.5,12.1,6.3c3.5,2.8,6.2,6.3,8.3,10.5
		c2,4.2,3,9.1,3,14.8c0,5.8-1,10.8-3,15.2c-2,4.3-4.7,7.9-8.2,10.7c-3.5,2.8-7.5,4.9-12.2,6.4c-4.7,1.4-9.7,2.1-15.1,2.1h-13.8V39.5
		z M593.6,99.8h3c4.3,0,8.4-0.4,12.4-1.3c3.9-0.9,7.3-2.3,10.3-4.4c2.9-2,5.3-4.7,7-8.1c1.7-3.4,2.6-7.5,2.6-12.4
		c0-4.9-0.9-9.1-2.6-12.4c-1.7-3.4-4.1-6.1-7-8.1c-2.9-2-6.4-3.5-10.3-4.4c-3.9-0.9-8-1.3-12.4-1.3h-3V99.8z"/>
</g>
</svg>
